<?xml version="1.0" encoding="utf-8"?>
<!-- Generator: Adobe Illustrator 18.0.0, SVG Export Plug-In . SVG Version: 6.00 Build 0)  -->
<!DOCTYPE svg PUBLIC "-//W3C//DTD SVG 1.1//EN" "http://www.w3.org/Graphics/SVG/1.1/DTD/svg11.dtd">
<svg version="1.1" id="레이어_1" xmlns="http://www.w3.org/2000/svg" xmlns:xlink="http://www.w3.org/1999/xlink" x="0px"
	 y="0px" viewBox="0 0 156.5 56.7" enable-background="new 0 0 156.5 56.7" xml:space="preserve">
<g>
	<path fill="#002436" d="M44.8,8C42.3,4.1,38.6,1.3,34,0.3c-0.2,0-0.5-0.1-0.7-0.1c-1.2-0.3-6.4-0.5-10.2,0.4
		c-2.2,0.6-4.3,0.9-6.3,1.1C6.2,2.9,0.1,0,0-0.1v7.8c3.1,0.9,8.3,2,15.2,1.5c0.6,0,1.1-0.1,1.7-0.1c2.5-0.2,5.1-0.7,8-1.3
		c0.2,0,2.3-0.4,1.8-0.3c2.5-0.4,4.6-0.1,6.3,0.4c0.9,0.3,2,0.8,2.1,0.8c3,1.6,5,4.8,5,8.5c0,3.3-1.7,6.3-4.3,8c0,0-1.5,0.9-3,1.3
		c-1.6,0.4-4.1,0.9-8.2-0.1v-0.7V10.4c0,0-5.6,1.2-8.5,1.4v44.4h8.5V33.9c2.3,0.4,4.3,0.5,6.8,0.4c8.2-0.5,15-6.6,16-15.2
		C48,13,45.3,8.8,44.8,8z"/>
	<path fill="#002436" d="M71.5,22.6v3.7c-2.5-2.8-6.2-3.8-9.7-3.8c-5,0-9.1,1.6-12.4,4.8c-3.3,3.2-5,7.1-5,11.9
		c0,4.8,1.7,8.9,5,12.1c3.3,3.2,7.5,4.8,12.6,4.8c3.3,0,6.5-1,9.5-2.9v3.2h8.1V22.6H71.5z M61.8,49.2c-5.4,0-9.7-4.4-9.7-9.7
		s4.4-9.7,9.7-9.7s9.7,4.4,9.7,9.7S67.2,49.2,61.8,49.2z"/>
	<rect x="132.4" y="22.6" fill="#002436" width="8.2" height="33.6"/>
	<polygon fill="#002436" points="127.9,22.6 122.7,22.6 122.7,15.5 114.5,15.5 114.5,22.6 109.3,22.6 109.3,30.8 114.5,30.8 
		114.5,56.3 122.7,56.3 122.7,30.8 127.9,30.8 	"/>
	<path fill="#002436" d="M104.7,22.6c-3.7,0-7.6,1.6-9.8,3.8v-3.7h-8.2v33.6h8.2v-2.9V40l0-0.3l0,0.8c0-5.4,4.3-9.7,9.7-9.7
		c0.4,0,1.3,0,1.3,0v-8.2C105.5,22.6,105.1,22.6,104.7,22.6z"/>
	<circle fill="#002436" cx="136.5" cy="15.5" r="5.3"/>
	<circle fill="#002436" cx="151.1" cy="51.4" r="5.3"/>
</g>
</svg>
