<?xml version="1.0" encoding="utf-8"?>
<!-- Generator: Adobe Illustrator 18.0.0, SVG Export Plug-In . SVG Version: 6.00 Build 0)  -->
<!DOCTYPE svg PUBLIC "-//W3C//DTD SVG 1.1//EN" "http://www.w3.org/Graphics/SVG/1.1/DTD/svg11.dtd">
<svg version="1.1" id="레이어_1" xmlns="http://www.w3.org/2000/svg" xmlns:xlink="http://www.w3.org/1999/xlink" x="0px"
	 y="0px" viewBox="0 0 156.5 56.7" enable-background="new 0 0 156.5 56.7" xml:space="preserve">
<path fill="#FFFFFF" d="M44.8,8.1C42.3,4.2,38.6,1.4,34,0.4c-0.2,0-0.5-0.1-0.7-0.1C32.1,0,26.9-0.3,23.1,0.7
	c-2.2,0.6-4.3,0.9-6.3,1.1C6.2,3,0.1,0,0,0v7.8c3.1,0.9,8.3,2,15.2,1.5c0.6,0,1.1-0.1,1.7-0.1c2.5-0.2,5.1-0.7,8-1.3
	c0.2,0,2.3-0.4,1.8-0.3c2.5-0.4,4.6-0.1,6.3,0.4c0.9,0.3,2,0.8,2.1,0.8c3,1.6,5,4.8,5,8.5c0,3.3-1.7,6.3-4.3,8c0,0-1.5,0.9-3,1.3
	c-1.6,0.4-4.1,0.9-8.2-0.1v-0.7V10.5c0,0-5.6,1.2-8.5,1.4v44.4h8.5V33.9c2.3,0.4,4.3,0.5,6.8,0.4c8.2-0.5,15-6.6,16-15.2
	C48,13.1,45.3,8.9,44.8,8.1z"/>
<path fill="#FFFFFF" d="M71.5,22.7v3.7c-2.5-2.8-6.2-3.8-9.7-3.8c-5,0-9.1,1.6-12.4,4.8c-3.3,3.2-5,7.1-5,11.9c0,4.8,1.7,8.9,5,12.1
	c3.3,3.2,7.5,4.8,12.6,4.8c3.3,0,6.5-1,9.5-2.9v3.2h8.1V22.7H71.5z M61.8,49.3c-5.4,0-9.7-4.4-9.7-9.7s4.4-9.7,9.7-9.7
	s9.7,4.4,9.7,9.7S67.2,49.3,61.8,49.3z"/>
<rect x="132.4" y="22.7" fill="#FFFFFF" width="8.2" height="33.6"/>
<polygon fill="#FFFFFF" points="127.9,22.7 122.7,22.7 122.7,15.6 114.5,15.6 114.5,22.7 109.3,22.7 109.3,30.9 114.5,30.9 
	114.5,56.4 122.7,56.4 122.7,30.9 127.9,30.9 "/>
<path fill="#FFFFFF" d="M104.7,22.7c-3.7,0-7.6,1.6-9.8,3.8v-3.7h-8.2v33.6h8.2v-2.9V40l0-0.3l0,0.8c0-5.4,4.3-9.7,9.7-9.7
	c0.4,0,1.3,0,1.3,0v-8.2C105.5,22.7,105.1,22.7,104.7,22.7z"/>
<circle fill="#FFFFFF" cx="136.5" cy="15.6" r="5.3"/>
<circle fill="#FFFFFF" cx="151.1" cy="51.4" r="5.3"/>
</svg>
